<?xml version="1.0" encoding="UTF-8" standalone="no"?>
<!-- Created with Inkscape (http://www.inkscape.org/) -->
<svg xmlns="http://www.w3.org/2000/svg" xmlns:svg="http://www.w3.org/2000/svg" version="1.1" id="svg2370" width="682.66669" height="682.66669" viewBox="0 0 682.66669 682.66669">
  <defs id="defs2374">
    <clipPath clipPathUnits="userSpaceOnUse" id="clipPath2384">
      <path d="M 0,512 H 512 V 0 H 0 Z" id="path2382"/>
    </clipPath>
  </defs>
  <mask id="custom"><rect id="bg" x="0" y="0" width="100%" height="100%" fill="white"/><g transform="matrix(1.3333333,0,0,-1.3333333,0,682.66667)"/></mask><g mask="url(#custom)"><g id="g2376" transform="matrix(1.3333333,0,0,-1.3333333,0,682.66667)">
    <g id="g2378">
      <g id="g2380" clip-path="url(#clipPath2384)">
        <path d="M 497,15 H 316 v 181 h 181 z" style="fill:none;stroke:#000000;stroke-width:30;stroke-linecap:butt;stroke-linejoin:miter;stroke-miterlimit:10;stroke-dasharray:none;stroke-opacity:1" id="path2386"/>
        <g id="g2388" transform="translate(135,256)">
          <path d="M 0,0 C 0,66.826 54.174,121 121,121 187.826,121 242,66.826 242,0 H 362 C 362,133.101 254.101,241 121,241 -12.101,241 -120,133.101 -120,0 c 0,-133.101 107.899,-241 241,-241 v 120 C 54.174,-121 0,-66.826 0,0 Z" style="fill:none;stroke:#000000;stroke-width:30;stroke-linecap:butt;stroke-linejoin:miter;stroke-miterlimit:10;stroke-dasharray:none;stroke-opacity:1" id="path2390"/>
        </g>
      </g>
    </g>
  </g></g>
</svg>
